<svg id="chef_x5F_hat" enable-background="new 0 0 300 300" height="512" viewBox="0 0 300 300" width="512" xmlns="http://www.w3.org/2000/svg"><path d="m254.439 121.594c0-38.375-31.219-69.594-69.59-69.594-14.734 0-28.723 4.539-40.633 13.156-10.066-5.934-21.473-9.057-33.16-9.057-36.113 0-65.496 29.381-65.496 65.494 0 21.051 8.695 40.457 23.363 52.355v70.052c0 2.209 1.789 4 4 4h152c1.062 0 2.078-.422 2.828-1.172.75-.752 1.172-1.77 1.172-2.83l-.051-69.359c16.274-13.729 25.567-32.957 25.567-53.045zm-200.878 0c0-31.703 25.793-57.494 57.496-57.494 9.476 0 18.736 2.359 27.062 6.824-5.692 5.659-13.172 14.985-20.577 29.799-.988 1.977-.188 4.379 1.789 5.367.574.287 1.184.422 1.785.422 1.469 0 2.883-.811 3.582-2.211 13.316-26.637 26.582-33.857 26.855-34 .611-.311 1.061-.785 1.427-1.313 9.604-5.869 20.474-8.988 31.87-8.988 33.961 0 61.59 27.631 61.59 61.594 0 17.488-8.119 34.235-22.239 46.406h-24.669l14.576-27.855c1.023-1.959.27-4.375-1.688-5.4-1.965-1.018-4.375-.268-5.398 1.689l-16.519 31.566h-25.621l6.683-36.139c.402-2.172-1.035-4.258-3.207-4.66s-4.258 1.031-4.66 3.207l-6.914 37.391c-.013.069.012.133.003.201h-16.62l-7.977-37.693c-.457-2.16-2.578-3.537-4.742-3.086-2.16.459-3.543 2.58-3.086 4.742l7.626 36.037h-24.32c-.025-.089-.009-.179-.041-.268l-11.379-30.828c-.766-2.074-3.074-3.135-5.141-2.367-2.07.764-3.129 3.064-2.367 5.137l10.455 28.326h-24.798c-13.045-10.355-20.836-27.568-20.836-46.406zm23.363 118.406v-11.842h58.504c2.211 0 4-1.791 4-4s-1.789-4-4-4h-58.504v-44.158h143.951l.031 44.158h-35.982c-2.211 0-4 1.791-4 4s1.789 4 4 4h35.988l.008 11.842z"/><path d="m167.033 220.158h-13.715c-2.211 0-4 1.791-4 4s1.789 4 4 4h13.715c2.211 0 4-1.791 4-4s-1.789-4-4-4z"/></svg>